<svg version="1.1" xmlns="http://www.w3.org/2000/svg" xmlns:xlink="http://www.w3.org/1999/xlink" width="800px" height="800px" viewBox="0,0,256,256"><g fill="#a43f49" fill-rule="nonzero" stroke="none" stroke-width="1" stroke-linecap="butt" stroke-linejoin="miter" stroke-miterlimit="10" stroke-dasharray="" stroke-dashoffset="0" font-family="none" font-weight="none" font-size="none" text-anchor="none" style="mix-blend-mode: normal"><g transform="scale(8,8)"><path d="M28,29h-24c-1.104,0 -2,-0.896 -2,-2v-9h4v3h4v-3h12v3h4v-3h4v9c0,1.104 -0.896,2 -2,2zM23,20v-4h2v4zM7,20v-4h2v4zM26,15h-4v2h-12v-2h-4v2h-4v-7c0,-1.104 0.896,-2 2,-2h24c1.104,0 2,0.896 2,2v7h-4zM19,4.979h-6v2.021h-2v-0.979h1v-3.021h8.021v3h0.979v1h-2z"></path></g></g></svg>